<svg width="1440" height="771" viewBox="0 0 1440 771" fill="none" xmlns="http://www.w3.org/2000/svg">
<path d="M1425.19 70.2554L1013.69 147.99L706.832 200.751L400.064 228.156L30.6038 245.824" stroke="#34BC8B"/>
<path d="M1438.93 124.191L1250.63 158.368L999.627 182.807L734.63 223.043L441.836 240.99L218.761 252.853L30.4769 280.691" stroke="#34BC8B"/>
<path d="M1438.31 295.344L1117.57 332.207L978.115 347.545L852.615 359.765L587.642 393.661L357.562 415.007L57.7523 445.607L15.9344 445.455" stroke="#34BC8B"/>
<path d="M15.6907 512.014L155.141 496.675L322.482 478.27L433.996 478.677L705.916 451.145L949.946 426.68L1047.52 427.037L1145.15 411.546L1305.49 402.623L1437.91 403.107" stroke="#34BC8B"/>
<path d="M28.8448 727.587L224.076 706.114" stroke="#95D09B" stroke-width="5"/>
<path d="M231.033 709.31L572.626 688.371L970.046 648.619L1165.25 633.485L1269.84 621.189L1437.19 602.783" stroke="#FCFEB4" stroke-width="4"/>
<path d="M1437.53 507.696L1291.14 516.669L1033.13 550.592L747.214 593.92L593.825 609.208L468.302 627.766L370.727 627.41L217.314 649.036L22.1639 648.323" stroke="#FCFEB4" stroke-width="3"/>
<path d="M1097.85 5.66919L937.387 49.4564L735.151 80.4129L477.147 114.335L421.309 136.318L330.704 135.987L281.859 151.656L212.162 151.401L9.88068 195.036" stroke="#FCFEB4" stroke-width="2"/>
<path d="M1431.79 171.706L1194.65 218.382L1027.26 249.466L866.912 261.558L678.674 276.718L525.284 292.005L392.792 310.539L267.338 310.08L120.872 338.071L23.2503 350.392" stroke="#34BC8B"/>
<path d="M777.224 10.8359L707.469 26.4288L672.575 38.9794L609.848 38.7502L567.984 51.2754L512.273 38.3937L491.307 54.1648L435.549 53.9611L330.935 72.5961L240.261 91.282L177.534 91.0528L10.1585 118.967" stroke="#34BC8B"/>
<path d="M1437.85 422.12L1256.58 437.306L1144.99 455.915L991.615 468.033L824.275 486.439L670.896 498.557L475.654 523.2L266.507 538.283L147.977 550.528L22.5232 550.07" stroke="#34BC8B"/>
<path d="M1432.16 70.2817L1132.67 12.1357" stroke="#34BC8B"/>
<path d="M1417.47 276.247L1278.42 180.653L1222.94 104.382L798.132 10.9128" stroke="#34BC8B"/>
<path d="M1430.86 425.267L1270.84 348.614L1076.07 243.307L804.684 125.043L637.667 54.7026L428.752 6.39619" stroke="#34BC8B"/>
<path d="M101.168 8.36679L393.603 88.6738L553.719 139.971L685.887 210.184L741.54 238.913L776.389 239.041L776.319 258.058L936.32 341.05L1096.41 398.687L1346.62 589.774L1429.61 767.571" stroke="#34BC8B"/>
<path d="M10.2744 87.2722L184.353 132.282L406.999 237.69L511.393 279.276L720.135 375.124L866.208 454.897L1116.52 617.458L1165.18 652.501" stroke="#34BC8B"/>
<path d="M9.93769 179.189L142.106 249.401L330.02 322.987L503.925 415.539L733.529 524.143L837.715 622.779L948.719 762.644" stroke="#34BC8B"/>
<path d="M9.45126 312.308L280.734 459.098L475.479 570.744L628.44 672.728L669.922 764.796" stroke="#34BC8B"/>
<path d="M9.03472 426.409L314.888 649.394L391.357 703.555L446.883 767.149" stroke="#34BC8B"/>
<path d="M8.13205 673.629L140.428 708.978L175.091 759.817" stroke="#34BC8B"/>
<path d="M1306.92 12.7712L1355.15 165.085L1354.77 269.679L1424.09 371.357" stroke="#34BC8B"/>
<path d="M1076.92 11.9312L1097.19 186.33L1138.25 392.5L1179.84 456.043" stroke="#34BC8B"/>
<path d="M867.841 7.99878L936.97 163.559L1020.39 224.085L1020.08 306.492L978.059 363.39L1019.1 575.899L1046.48 712.289L1046.3 763.001" stroke="#34BC8B"/>
<path d="M602.983 10.1995L637.125 203.666L664.529 333.717L699.25 368.709L699.076 416.252L663.985 482.684L698.462 584.235L739.979 666.795L781.426 768.371" stroke="#34BC8B"/>
<path d="M1206.6 763.587L1088.53 649.052" stroke="#34BC8B"/>
<path d="M1206.61 760.417L1283.74 633.917" stroke="#34BC8B"/>
<path d="M1429.82 710.519L1325.15 745.002L1164.81 753.925L976.666 743.728L823.264 762.185" stroke="#FCFEB4" stroke-width="4"/>
<path d="M66.3204 8.23802L107.744 116.154L135.079 265.222L134.592 398.341L161.95 541.07L231.252 649.088L279.82 709.486L314.46 766.665" stroke="#34BC8B"/>
<path d="M303.277 12.2747L337.558 167.707L392.69 339.064L440.933 488.209L468.395 602.413L510.027 653.277L509.934 678.633L565.39 761.244" stroke="#34BC8B"/>
<path d="M275.41 9.00269L24.3645 46.1199" stroke="#34BC8B"/>
<path d="M1431.86 152.688L1285.39 180.679L1097.09 211.687L915.78 239.55L762.39 254.837L532.311 276.183L378.898 297.81L281.323 297.453L141.849 319.13L23.2844 340.884" stroke="#34BC8B"/>
<path d="M1438.89 136.869L1285.45 164.834L1118.09 189.579L1006.51 205.019L769.42 239.017L664.84 248.144L483.584 260.16L392.92 275.676L218.68 275.04L141.921 300.115L2.49349 309.115" stroke="#34BC8B"/>
<path d="M1438.13 342.887L1312.62 358.276L1145.29 373.512L1033.78 373.105L991.892 391.969L796.672 410.273L706.067 409.942L573.528 441.153L441.105 440.669L350.419 462.525L301.631 462.346L183.089 477.761L106.423 477.481L22.73 493.023" stroke="#34BC8B"/>
<path d="M1438.24 314.361L1389.4 326.861L1270.87 339.106L1138.38 357.639L991.984 366.613L768.863 391.154L699.167 390.899L531.768 425.152L427.223 424.77L336.56 440.287L273.834 440.058L162.227 465.006L78.591 464.701L22.7876 477.175" stroke="#34BC8B"/>
</svg>
